<svg width="27.000000" height="11.000000" viewBox="0 0 27 11" fill="none" xmlns="http://www.w3.org/2000/svg" xmlns:xlink="http://www.w3.org/1999/xlink">
	<desc>
			Created with Pixso.
	</desc>
	<defs/>
	<path id="ENG" d="M26.74 5Q26.74 4 26.89 3.73L26.87 3.71Q26.32 3.83 25.46 3.83L24.54 3.83Q22.98 3.83 22.76 3.77L22.83 5.81L22.86 5.82Q22.93 5.67 23.74 5.67L24.75 5.67L24.75 6.97Q24.75 7.17 24.68 7.33Q24.65 7.42 24.59 7.5Q24.56 7.55 24.53 7.59Q24.01 8.24 22.69 8.24Q21.89 8.24 21.28 7.91Q20.9 7.7 20.59 7.37Q20.46 7.23 20.35 7.07Q19.78 6.26 19.78 5.05Q19.78 3.65 20.44 2.71Q20.56 2.54 20.7 2.39Q20.84 2.23 21 2.1Q21.34 1.81 21.77 1.63Q22.4 1.36 23.24 1.36Q23.82 1.36 24.38 1.5Q24.61 1.56 24.84 1.65Q25.65 1.96 25.92 2.43L25.98 2.42L26.11 0.11Q25.05 -0.59 23.23 -0.59Q21.27 -0.59 19.92 0.31Q19.39 0.67 18.94 1.17Q18.55 1.6 18.27 2.1Q17.55 3.39 17.55 5.07Q17.55 6.6 18.21 7.76Q18.5 8.26 18.92 8.7Q19.31 9.11 19.77 9.41Q20.99 10.19 22.71 10.19Q24.25 10.19 25.36 9.5Q25.49 9.42 25.6 9.34Q26.48 8.71 26.68 7.92Q26.74 7.68 26.74 7.42L26.74 5ZM5.59 8.03Q5.41 8.12 4.92 8.12L1.73 8.12L1.73 5.31L3.67 5.31Q4.26 5.31 4.64 5.35L4.62 3.42Q4.44 3.46 3.58 3.46L1.73 3.46L1.73 1.47L4.19 1.47Q4.94 1.47 5.35 1.59L5.37 1.57Q5.35 1.5 5.35 1.38Q5.35 0.23 5.44 -0.46Q3.69 -0.4 1.9 -0.4Q1.26 -0.4 0.71 -0.41L0.16 -0.43Q-0.09 -0.43 -0.31 -0.45L-0.31 10L5.55 10L5.62 8.03L5.59 8.03ZM7.83 9.42Q7.83 9.73 7.78 10L9.82 10L9.82 3.74L13.9 10L15.52 10L15.52 0.29Q15.52 -0.08 15.56 -0.4L13.45 -0.4Q13.53 -0.29 13.53 0.14L13.53 6.12L9.39 -0.4L7.83 -0.4L7.83 9.42Z" fill="#FFFFFF" fill-opacity="1.000000" fill-rule="evenodd"/>
</svg>
