<svg width="30.000000" height="30.000000" viewBox="0 0 30 30" fill="none" xmlns="http://www.w3.org/2000/svg" xmlns:xlink="http://www.w3.org/1999/xlink">
	<desc>
			Created with Pixso.
	</desc>
	<defs>
		<clipPath id="clip735_5">
			<rect id="inst 1" width="30.000000" height="30.000000" fill="white" fill-opacity="0"/>
		</clipPath>
	</defs>
	<g clip-path="url(#clip735_5)">
		<path id="Vector" d="M8.7 0L21.29 0C26.1 0 30 3.9 30 8.69L30 21.3C30 23.6 29.08 25.82 27.45 27.45C25.82 29.08 23.6 30 21.29 30L8.7 30C3.89 30 0 26.1 0 21.3L0 8.69C0 6.39 0.91 4.17 2.54 2.54C4.17 0.91 6.39 0 8.7 0ZM8.39 3C6.96 3 5.59 3.56 4.58 4.58C3.56 5.59 3 6.96 3 8.4L3 21.6C3 24.58 5.41 27 8.39 27L21.6 27C23.03 27 24.4 26.43 25.41 25.41C26.43 24.4 27 23.03 27 21.6L27 8.4C27 5.41 24.58 3 21.6 3L8.39 3ZM22.87 5.25C23.37 5.25 23.84 5.44 24.2 5.79C24.55 6.15 24.75 6.62 24.75 7.12C24.75 7.62 24.55 8.09 24.2 8.45C23.84 8.8 23.37 9 22.87 9C22.37 9 21.9 8.8 21.54 8.45C21.19 8.09 21 7.62 21 7.12C21 6.62 21.19 6.15 21.54 5.79C21.9 5.44 22.37 5.25 22.87 5.25ZM15 7.5C16.98 7.5 18.89 8.29 20.3 9.69C21.71 11.1 22.5 13.01 22.5 15C22.5 16.98 21.71 18.89 20.3 20.3C18.89 21.7 16.98 22.5 15 22.5C13.01 22.5 11.1 21.7 9.69 20.3C8.29 18.89 7.5 16.98 7.5 15C7.5 13.01 8.29 11.1 9.69 9.69C11.1 8.29 13.01 7.5 15 7.5ZM15 10.5C13.8 10.5 12.66 10.97 11.81 11.81C10.97 12.66 10.5 13.8 10.5 15C10.5 16.19 10.97 17.33 11.81 18.18C12.66 19.02 13.8 19.5 15 19.5C16.19 19.5 17.33 19.02 18.18 18.18C19.02 17.33 19.5 16.19 19.5 15C19.5 13.8 19.02 12.66 18.18 11.81C17.33 10.97 16.19 10.5 15 10.5Z" fill="#FFFFFF" fill-opacity="1.000000" fill-rule="nonzero"/>
	</g>
</svg>
