<svg width="33.000000" height="30.000000" viewBox="0 0 33 30" fill="none" xmlns="http://www.w3.org/2000/svg" xmlns:xlink="http://www.w3.org/1999/xlink">
	<desc>
			Created with Pixso.
	</desc>
	<defs/>
	<path id="Vector" d="M32.16 3.52C30.97 4.14 29.69 4.55 28.36 4.74C29.72 3.81 30.77 2.32 31.26 0.54C29.98 1.42 28.56 2.04 27.06 2.4C25.84 0.88 24.12 0 22.18 0C18.54 0 15.58 3.38 15.58 7.57C15.58 8.17 15.64 8.75 15.75 9.3C10.25 8.98 5.35 5.96 2.09 1.39C1.51 2.5 1.19 3.81 1.19 5.18C1.19 7.81 2.35 10.14 4.14 11.47C3.04 11.47 2.02 11.11 1.13 10.58L1.13 10.64C1.13 14.31 3.41 17.38 6.44 18.07C5.47 18.37 4.45 18.41 3.46 18.19C3.88 19.69 4.7 21.01 5.81 21.95C6.92 22.9 8.26 23.42 9.64 23.45C7.3 25.57 4.39 26.71 1.41 26.7C0.88 26.7 0.35 26.66 -0.17 26.59C2.77 28.74 6.26 30 10 30C22.18 30 28.87 18.45 28.87 8.45C28.87 8.11 28.87 7.8 28.85 7.46C30.15 6.4 31.26 5.06 32.16 3.52Z" fill="#FFFFFF" fill-opacity="1.000000" fill-rule="nonzero"/>
</svg>
