<svg width="19.000000" height="11.000000" viewBox="0 0 19 11" fill="none" xmlns="http://www.w3.org/2000/svg" xmlns:xlink="http://www.w3.org/1999/xlink">
	<desc>
			Created with Pixso.
	</desc>
	<defs/>
	<path id="UA" d="M6.55 -0.4Q6.23 -0.4 5.74 -0.43L5.74 5.89Q5.74 6.57 5.59 7.03Q5.36 7.74 4.88 8.06Q4.49 8.32 3.93 8.32Q3.32 8.32 2.86 8.06Q2.68 7.95 2.52 7.82Q2.39 7.69 2.29 7.55Q1.92 7.05 1.92 6.28L1.92 -0.46Q1.55 -0.4 0.97 -0.4Q0.4 -0.4 -0.25 -0.43L-0.25 6.18Q-0.25 7.71 0.48 8.69Q0.71 8.99 1.01 9.25Q1.1 9.32 1.19 9.39Q2.28 10.19 3.95 10.19Q4.97 10.19 5.78 9.78Q6.29 9.52 6.72 9.09Q7 8.8 7.22 8.47Q7.88 7.45 7.88 6L7.88 -0.46Q7.52 -0.4 7.19 -0.4L6.55 -0.4ZM9.69 10Q10.59 10 11.26 10.06L12 7.75L15.53 7.75L16.26 10L17.83 10L18.23 10.01Q18.44 10.01 18.6 10.02L15.13 0.48Q14.9 -0.16 14.9 -0.31Q14.9 -0.36 14.91 -0.4L14.91 -0.41Q14.25 -0.4 13.78 -0.4Q13.21 -0.4 12.7 -0.42L12.69 -0.4Q12.7 -0.38 12.7 -0.27Q12.7 -0.17 12.48 0.47L9.08 10L9.69 10ZM13.74 2.24L14.92 5.87L12.59 5.87L13.74 2.24Z" fill="#FFFFFF" fill-opacity="1.000000" fill-rule="evenodd"/>
</svg>
