<svg width="50.000000" height="30.000000" viewBox="0 0 50 30" fill="none" xmlns="http://www.w3.org/2000/svg" xmlns:xlink="http://www.w3.org/1999/xlink">
	<desc>
			Created with Pixso.
	</desc>
	<defs>
		<clipPath id="clip735_9">
			<rect id="youtube 1" width="50.000000" height="30.000000" fill="white" fill-opacity="0"/>
		</clipPath>
	</defs>
	<g clip-path="url(#clip735_9)">
		<path id="Vector" d="M20 21.42L32.97 15L20 8.57L20 21.42ZM48.89 4.65C49.22 5.65 49.45 7 49.6 8.72C49.77 10.43 49.85 11.91 49.85 13.2L50 15C50 19.69 49.6 23.14 48.89 25.35C48.27 27.27 46.82 28.52 44.57 29.05C43.39 29.33 41.25 29.52 37.95 29.65C34.7 29.8 31.72 29.87 28.97 29.87L25 30C14.52 30 8 29.65 5.42 29.05C3.17 28.52 1.72 27.27 1.1 25.35C0.77 24.34 0.54 22.99 0.39 21.27C0.22 19.56 0.14 18.08 0.14 16.79L0 15C0 10.3 0.39 6.85 1.1 4.65C1.72 2.72 3.17 1.47 5.42 0.94C6.6 0.66 8.75 0.47 12.04 0.34C15.29 0.19 18.27 0.12 21.02 0.12L25 0C35.47 0 42 0.34 44.57 0.94C46.82 1.47 48.27 2.72 48.89 4.65Z" fill="#FFFFFF" fill-opacity="1.000000" fill-rule="nonzero"/>
	</g>
</svg>
